<svg width="140" height="83" viewBox="0 0 140 83" fill="none" xmlns="http://www.w3.org/2000/svg">
                    <path d="M18.165 21.112C16.0383 21.112 14.1243 20.6673 12.423 19.778C10.741 18.8693 9.41667 17.6127 8.45 16.008C7.48333 14.4033 7 12.586 7 10.556C7 8.526 7.48333 6.70867 8.45 5.104C9.41667 3.49933 10.741 2.25233 12.423 1.363C14.1243 0.454333 16.0383 0 18.165 0C20.021 0 21.6933 0.328667 23.182 0.986001C24.6707 1.64333 25.908 2.59067 26.894 3.828L23.24 7.134C21.9253 5.54867 20.3303 4.756 18.455 4.756C17.353 4.756 16.367 4.99767 15.497 5.481C14.6463 5.96433 13.9793 6.65067 13.496 7.54C13.032 8.41 12.8 9.41533 12.8 10.556C12.8 11.6967 13.032 12.7117 13.496 13.601C13.9793 14.471 14.6463 15.1477 15.497 15.631C16.367 16.1143 17.353 16.356 18.455 16.356C20.3303 16.356 21.9253 15.5633 23.24 13.978L26.894 17.284C25.908 18.5213 24.6707 19.4687 23.182 20.126C21.6933 20.7833 20.021 21.112 18.165 21.112Z" fill="white"></path>
                    <path d="M39.2664 21.112C37.1204 21.112 35.187 20.6577 33.4664 19.749C31.765 18.8403 30.4214 17.5837 29.4354 15.979C28.4687 14.3743 27.9854 12.5667 27.9854 10.556C27.9854 8.54533 28.4687 6.73767 29.4354 5.133C30.4214 3.52833 31.765 2.27167 33.4664 1.363C35.187 0.454333 37.1204 0 39.2664 0C41.4124 0 43.336 0.454333 45.0374 1.363C46.758 2.27167 48.1017 3.52833 49.0684 5.133C50.0544 6.73767 50.5474 8.54533 50.5474 10.556C50.5474 12.5667 50.0544 14.3743 49.0684 15.979C48.1017 17.5837 46.758 18.8403 45.0374 19.749C43.336 20.6577 41.4124 21.112 39.2664 21.112ZM39.2664 16.356C40.291 16.356 41.219 16.1143 42.0504 15.631C42.8817 15.1477 43.539 14.471 44.0224 13.601C44.5057 12.7117 44.7474 11.6967 44.7474 10.556C44.7474 9.41533 44.5057 8.41 44.0224 7.54C43.539 6.65067 42.8817 5.96433 42.0504 5.481C41.219 4.99767 40.291 4.756 39.2664 4.756C38.2417 4.756 37.3137 4.99767 36.4824 5.481C35.651 5.96433 34.9937 6.65067 34.5104 7.54C34.027 8.41 33.7854 9.41533 33.7854 10.556C33.7854 11.6967 34.027 12.7117 34.5104 13.601C34.9937 14.471 35.651 15.1477 36.4824 15.631C37.3137 16.1143 38.2417 16.356 39.2664 16.356Z" fill="white"></path>
                    <path d="M62.9217 21.112C59.9057 21.112 57.5567 20.2903 55.8747 18.647C54.2121 17.0037 53.3807 14.674 53.3807 11.658V0.406H59.1227V11.484C59.1227 14.732 60.4084 16.356 62.9797 16.356C65.5317 16.356 66.8077 14.732 66.8077 11.484V0.406H72.4627V11.658C72.4627 14.674 71.6217 17.0037 69.9397 18.647C68.2771 20.2903 65.9377 21.112 62.9217 21.112Z" fill="white"></path>
                    <path d="M85.2266 15.312H82.0946V20.706H76.3526V0.406H85.6326C87.4693 0.406 89.0643 0.715333 90.4176 1.334C91.7709 1.93333 92.8149 2.80333 93.5496 3.944C94.2843 5.06533 94.6516 6.38967 94.6516 7.917C94.6516 9.38633 94.3036 10.672 93.6076 11.774C92.9309 12.8567 91.9546 13.7073 90.6786 14.326L95.0576 20.706H88.9096L85.2266 15.312ZM88.8516 7.917C88.8516 6.96967 88.5519 6.235 87.9526 5.713C87.3533 5.191 86.4639 4.93 85.2846 4.93H82.0946V10.875H85.2846C86.4639 10.875 87.3533 10.6237 87.9526 10.121C88.5519 9.599 88.8516 8.86433 88.8516 7.917Z" fill="white"></path>
                    <path d="M104.953 21.112C103.31 21.112 101.715 20.909 100.168 20.503C98.6217 20.097 97.3651 19.5557 96.3984 18.879L98.2834 14.645C99.1921 15.2443 100.246 15.7277 101.444 16.095C102.643 16.4623 103.822 16.646 104.982 16.646C107.186 16.646 108.288 16.095 108.288 14.993C108.288 14.413 107.969 13.9877 107.331 13.717C106.713 13.427 105.707 13.1273 104.315 12.818C102.788 12.4893 101.512 12.1413 100.487 11.774C99.4627 11.3873 98.5831 10.7783 97.8484 9.947C97.1137 9.11567 96.7464 7.99433 96.7464 6.583C96.7464 5.34567 97.0847 4.234 97.7614 3.248C98.4381 2.24267 99.4434 1.45 100.777 0.870001C102.131 0.29 103.784 0 105.736 0C107.07 0 108.385 0.154667 109.68 0.464001C110.976 0.754001 112.116 1.189 113.102 1.769L111.333 6.032C109.4 4.988 107.525 4.466 105.707 4.466C104.567 4.466 103.735 4.64 103.213 4.988C102.691 5.31667 102.43 5.75167 102.43 6.293C102.43 6.83433 102.74 7.24033 103.358 7.511C103.977 7.78167 104.973 8.062 106.345 8.352C107.892 8.68067 109.168 9.03833 110.173 9.425C111.198 9.79233 112.078 10.3917 112.812 11.223C113.566 12.035 113.943 13.1467 113.943 14.558C113.943 15.776 113.605 16.878 112.928 17.864C112.252 18.85 111.237 19.6427 109.883 20.242C108.53 20.822 106.887 21.112 104.953 21.112Z" fill="white"></path>
                    <path d="M132.894 16.269V20.706H116.596V0.406H132.517V4.843H122.28V8.265H131.299V12.557H122.28V16.269H132.894Z" fill="white"></path>
                    <path d="M17.711 40.312H14.579V45.706H8.83697V25.406H18.117C19.9536 25.406 21.5486 25.7153 22.902 26.334C24.2553 26.9333 25.2993 27.8033 26.034 28.944C26.7686 30.0653 27.136 31.3897 27.136 32.917C27.136 34.3863 26.788 35.672 26.092 36.774C25.4153 37.8567 24.439 38.7073 23.163 39.326L27.542 45.706H21.394L17.711 40.312ZM21.336 32.917C21.336 31.9697 21.0363 31.235 20.437 30.713C19.8376 30.191 18.9483 29.93 17.769 29.93H14.579V35.875H17.769C18.9483 35.875 19.8376 35.6237 20.437 35.121C21.0363 34.599 21.336 33.8643 21.336 32.917Z" fill="white"></path>
                    <path d="M46.6018 41.269V45.706H30.3038V25.406H46.2248V29.843H35.9878V33.265H45.0068V37.557H35.9878V41.269H46.6018Z" fill="white"></path>
                    <path d="M59.0681 25.406C60.9048 25.406 62.4998 25.7153 63.8531 26.334C65.2065 26.9333 66.2505 27.8033 66.9851 28.944C67.7198 30.0653 68.0871 31.3897 68.0871 32.917C68.0871 34.4443 67.7198 35.7687 66.9851 36.89C66.2505 38.0113 65.2065 38.8813 63.8531 39.5C62.4998 40.0993 60.9048 40.399 59.0681 40.399H55.5301V45.706H49.7881V25.406H59.0681ZM58.7201 35.875C59.8995 35.875 60.7888 35.6237 61.3881 35.121C61.9875 34.599 62.2871 33.8643 62.2871 32.917C62.2871 31.9697 61.9875 31.235 61.3881 30.713C60.7888 30.191 59.8995 29.93 58.7201 29.93H55.5301V35.875H58.7201Z" fill="white"></path>
                    <path d="M81.407 46.112C79.261 46.112 77.3276 45.6577 75.607 44.749C73.9056 43.8403 72.562 42.5837 71.576 40.979C70.6093 39.3743 70.126 37.5667 70.126 35.556C70.126 33.5453 70.6093 31.7377 71.576 30.133C72.562 28.5283 73.9056 27.2717 75.607 26.363C77.3276 25.4543 79.261 25 81.407 25C83.553 25 85.4766 25.4543 87.178 26.363C88.8986 27.2717 90.2423 28.5283 91.209 30.133C92.195 31.7377 92.688 33.5453 92.688 35.556C92.688 37.5667 92.195 39.3743 91.209 40.979C90.2423 42.5837 88.8986 43.8403 87.178 44.749C85.4766 45.6577 83.553 46.112 81.407 46.112ZM81.407 41.356C82.4316 41.356 83.3596 41.1143 84.191 40.631C85.0223 40.1477 85.6796 39.471 86.163 38.601C86.6463 37.7117 86.888 36.6967 86.888 35.556C86.888 34.4153 86.6463 33.41 86.163 32.54C85.6796 31.6507 85.0223 30.9643 84.191 30.481C83.3596 29.9977 82.4316 29.756 81.407 29.756C80.3823 29.756 79.4543 29.9977 78.623 30.481C77.7916 30.9643 77.1343 31.6507 76.651 32.54C76.1676 33.41 75.926 34.4153 75.926 35.556C75.926 36.6967 76.1676 37.7117 76.651 38.601C77.1343 39.471 77.7916 40.1477 78.623 40.631C79.4543 41.1143 80.3823 41.356 81.407 41.356Z" fill="white"></path>
                    <path d="M104.569 40.312H101.437V45.706H95.6954V25.406H104.975C106.812 25.406 108.407 25.7153 109.76 26.334C111.114 26.9333 112.158 27.8033 112.892 28.944C113.627 30.0653 113.994 31.3897 113.994 32.917C113.994 34.3863 113.646 35.672 112.95 36.774C112.274 37.8567 111.297 38.7073 110.021 39.326L114.4 45.706H108.252L104.569 40.312ZM108.194 32.917C108.194 31.9697 107.895 31.235 107.295 30.713C106.696 30.191 105.807 29.93 104.627 29.93H101.437V35.875H104.627C105.807 35.875 106.696 35.6237 107.295 35.121C107.895 34.599 108.194 33.8643 108.194 32.917Z" fill="white"></path>
                    <path d="M121.2 29.959H114.965V25.406H133.148V29.959H126.942V45.706H121.2V29.959Z" fill="white"></path>
                    <path d="M11.4789 60.4971C11.7782 59.5758 13.0816 59.5758 13.381 60.4971L14.9961 65.4679C15.13 65.88 15.5139 66.1589 15.9471 66.1589H21.1738C22.1425 66.1589 22.5453 67.3985 21.7616 67.9679L17.5331 71.0401C17.1826 71.2947 17.036 71.7461 17.1698 72.1581L18.785 77.1289C19.0843 78.0502 18.0298 78.8164 17.2461 78.247L13.0177 75.1748C12.6672 74.9202 12.1926 74.9202 11.8421 75.1748L7.61369 78.247C6.82998 78.8164 5.7755 78.0502 6.07485 77.1289L7.68996 72.1581C7.82384 71.7461 7.67718 71.2947 7.32669 71.0401L3.09826 67.9679C2.31455 67.3985 2.71732 66.1589 3.68605 66.1589H8.91268C9.3459 66.1589 9.72986 65.88 9.86373 65.4679L11.4789 60.4971Z" fill="#FEC645"></path>
                    <path d="M40.264 60.4971C40.5634 59.5758 41.8668 59.5758 42.1661 60.4971L43.7812 65.4679C43.9151 65.88 44.2991 66.1589 44.7323 66.1589H49.9589C50.9276 66.1589 51.3304 67.3985 50.5467 67.9679L46.3183 71.0401C45.9678 71.2947 45.8211 71.7461 45.955 72.1581L47.5701 77.1289C47.8695 78.0502 46.815 78.8164 46.0313 78.247L41.8028 75.1748C41.4524 74.9202 40.9778 74.9202 40.6273 75.1748L36.3988 78.247C35.6151 78.8164 34.5607 78.0502 34.86 77.1289L36.4751 72.1581C36.609 71.7461 36.4623 71.2947 36.1118 71.0401L31.8834 67.9679C31.0997 67.3985 31.5025 66.1589 32.4712 66.1589H37.6978C38.1311 66.1589 38.515 65.88 38.6489 65.4679L40.264 60.4971Z" fill="#FEC645"></path>
                    <path d="M69.0492 60.4971C69.3485 59.5758 70.6519 59.5758 70.9513 60.4971L72.5664 65.4679C72.7003 65.88 73.0842 66.1589 73.5174 66.1589H78.7441C79.7128 66.1589 80.1156 67.3985 79.3319 67.9679L75.1034 71.0401C74.7529 71.2947 74.6063 71.7461 74.7402 72.1581L76.3553 77.1289C76.6546 78.0502 75.6002 78.8164 74.8164 78.247L70.588 75.1748C70.2375 74.9202 69.7629 74.9202 69.4124 75.1748L65.184 78.247C64.4003 78.8164 63.3458 78.0502 63.6452 77.1289L65.2603 72.1581C65.3942 71.7461 65.2475 71.2947 64.897 71.0401L60.6686 67.9679C59.8849 67.3985 60.2876 66.1589 61.2564 66.1589H66.483C66.9162 66.1589 67.3002 65.88 67.434 65.4679L69.0492 60.4971Z" fill="#FEC645"></path>
                    <path d="M97.8343 60.4971C98.1337 59.5758 99.4371 59.5758 99.7364 60.4971L101.352 65.4679C101.485 65.88 101.869 66.1589 102.303 66.1589H107.529C108.498 66.1589 108.901 67.3985 108.117 67.9679L103.889 71.0401C103.538 71.2947 103.391 71.7461 103.525 72.1581L105.14 77.1289C105.44 78.0502 104.385 78.8164 103.602 78.247L99.3732 75.1748C99.0227 74.9202 98.5481 74.9202 98.1976 75.1748L93.9692 78.247C93.1854 78.8164 92.131 78.0502 92.4303 77.1289L94.0454 72.1581C94.1793 71.7461 94.0326 71.2947 93.6822 71.0401L89.4537 67.9679C88.67 67.3985 89.0728 66.1589 90.0415 66.1589H95.2681C95.7014 66.1589 96.0853 65.88 96.2192 65.4679L97.8343 60.4971Z" fill="#FEC645"></path>
                    <path d="M126.619 60.4971C126.919 59.5758 128.222 59.5758 128.522 60.4971L130.137 65.4679C130.271 65.88 130.655 66.1589 131.088 66.1589H136.314C137.283 66.1589 137.686 67.3985 136.902 67.9679L132.674 71.0401C132.323 71.2947 132.177 71.7461 132.31 72.1581L133.926 77.1289C134.225 78.0502 133.17 78.8164 132.387 78.247L128.158 75.1748C127.808 74.9202 127.333 74.9202 126.983 75.1748L122.754 78.247C121.971 78.8164 120.916 78.0502 121.215 77.1289L122.831 72.1581C122.964 71.7461 122.818 71.2947 122.467 71.0401L118.239 67.9679C117.455 67.3985 117.858 66.1589 118.827 66.1589H124.053C124.487 66.1589 124.87 65.88 125.004 65.4679L126.619 60.4971Z" fill="#FEC645"></path>
                </svg>