<svg width="202" height="47" viewBox="0 0 202 47" fill="none" xmlns="http://www.w3.org/2000/svg">
    <g clip-path="url(#clip0_1039_380)">
        <path d="M0 23.2785L23.2785 0V10.5818L5.31416 28.5477L0 23.2785Z" fill="url(#paint0_linear_1039_380)" />
        <path d="M17.8535 41.2506L41.132 17.9721V28.5539L23.1677 46.5198L17.8535 41.2506Z"
            fill="url(#paint1_linear_1039_380)" />
        <path d="M28.466 23.2413L5.1875 46.5198V35.938L23.1534 17.9721L28.466 23.2413Z"
            fill="url(#paint2_linear_1039_380)" />
        <path
            d="M58.0423 25.5297H69.0362V20.3348H58.0423V15.9859H70.0975V10.6469H58.0423H56.7346H51.7148V35.7118H56.7346H58.0423H70.3097V30.3728H58.0423V25.5297Z"
            fill="white" />
        <path
            d="M89.1978 11.6199C87.8444 10.9593 86.3546 10.6265 84.8488 10.6485H73.7852V35.7118H80.1126V26.7257H84.8488C86.3528 26.748 87.8414 26.4213 89.1978 25.7713C90.4672 25.1596 91.5346 24.1966 92.2732 22.9965C93.0261 21.7839 93.4031 20.3523 93.4042 18.7018C93.4042 17.0058 93.0272 15.5624 92.2732 14.3715C91.5218 13.1879 90.4573 12.2355 89.1978 11.6199ZM86.6522 20.5455C86.3614 21.0264 85.9381 21.4132 85.4329 21.6595C84.9092 21.9109 84.3344 22.0382 83.7535 22.0313H80.1126V15.3491H83.7535C84.3344 15.3422 84.9092 15.4695 85.4329 15.7209C85.9417 15.9699 86.3658 16.3633 86.6522 16.8519C86.9752 17.4171 87.1361 18.0604 87.117 18.7111C87.1368 19.354 86.9758 19.9896 86.6522 20.5455Z"
            fill="white" />
        <path d="M101.779 10.6485H95.4512V35.7118H101.779V10.6485Z" fill="white" />
        <path
            d="M121.018 29.9313C120.027 30.3143 118.971 30.5006 117.909 30.4797C116.959 30.4921 116.015 30.3178 115.132 29.9669C114.311 29.6339 113.571 29.1276 112.963 28.4827C112.337 27.8138 111.85 27.0263 111.532 26.1664C110.848 24.2215 110.848 22.1016 111.532 20.1566C111.849 19.2964 112.334 18.5079 112.959 17.8373C113.565 17.194 114.305 16.6929 115.128 16.3701C116.014 16.0308 116.956 15.8626 117.904 15.8743C118.959 15.8513 120.007 16.0448 120.984 16.4429C121.819 16.7925 122.567 17.3214 123.175 17.9922L127.415 13.758C126.198 12.6415 124.784 11.7605 123.245 11.1597C121.665 10.54 119.886 10.2302 117.907 10.2302C116.109 10.2133 114.325 10.5497 112.657 11.2202C111.084 11.8528 109.645 12.7763 108.415 13.9423C107.202 15.0951 106.24 16.4846 105.587 18.0248C104.244 21.316 104.244 25.0024 105.587 28.2936C106.241 29.8409 107.204 31.2385 108.416 32.4009C109.645 33.5772 111.093 34.5019 112.677 35.123C114.366 35.7825 116.165 36.1122 117.979 36.0944C120.053 36.0944 121.86 35.7882 123.401 35.1757C124.929 34.5714 126.336 33.6971 127.555 32.5945L123.313 28.3525C122.673 29.041 121.89 29.5801 121.018 29.9313Z"
            fill="white" />
        <path
            d="M150.378 13.9005C149.161 12.7127 147.719 11.7808 146.136 11.1597C142.695 9.86444 138.901 9.86444 135.46 11.1597C133.061 12.1005 131.005 13.7494 129.566 15.8871C128.127 18.0247 127.372 20.5499 127.403 23.1267C127.389 24.8933 127.737 26.6441 128.427 28.2704C129.089 29.831 130.057 31.2433 131.273 32.4241C132.501 33.6119 133.948 34.5486 135.534 35.1819C138.952 36.496 142.734 36.502 146.156 35.1989C147.736 34.5741 149.173 33.636 150.381 32.4411C152.212 30.58 153.454 28.2216 153.954 25.6595C154.453 23.0975 154.188 20.445 153.192 18.0325C152.536 16.4826 151.58 15.0781 150.378 13.9005ZM146.878 27.0154C146.343 28.09 145.508 28.9865 144.474 29.5966C143.441 30.2091 142.215 30.5153 140.797 30.5153C139.819 30.5305 138.846 30.3564 137.934 30.0025C137.104 29.6735 136.356 29.1669 135.742 28.5183C135.117 27.8477 134.642 27.0525 134.347 26.185C134.017 25.1997 133.856 24.1657 133.87 23.1267C133.87 21.6662 134.153 20.3818 134.719 19.2735C135.251 18.2018 136.087 17.3106 137.122 16.7109C138.155 16.1098 139.381 15.8092 140.799 15.8092C141.779 15.7939 142.752 15.9741 143.662 16.3391C144.49 16.6782 145.236 17.1888 145.853 17.8373C146.475 18.5021 146.95 19.2908 147.247 20.152C147.575 21.1073 147.737 22.1119 147.724 23.122C147.725 24.6093 147.443 25.9072 146.878 27.0154Z"
            fill="white" />
        <path
            d="M176.885 14.1189C175.654 12.9933 174.212 12.122 172.643 11.5548C170.931 10.9396 169.123 10.6348 167.304 10.6547H156.982V35.7118H167.375C169.177 35.7304 170.967 35.4249 172.66 34.8101C174.223 34.2402 175.658 33.369 176.885 32.2459C178.088 31.1365 179.045 29.7876 179.695 28.2859C181.038 25.0128 181.038 21.3427 179.695 18.0697C179.044 16.5715 178.087 15.2258 176.885 14.1189ZM173.385 27.0387C172.851 28.0787 172.004 28.9247 170.963 29.4572C169.915 29.9994 168.684 30.2706 167.27 30.2706H163.31V16.0943H167.27C168.683 16.0943 169.908 16.3654 170.946 16.9077C171.974 17.4419 172.818 18.2733 173.366 19.2937C173.945 20.342 174.234 21.6207 174.234 23.1298C174.234 24.6626 173.951 25.9635 173.385 27.0325V27.0387Z"
            fill="white" />
        <path
            d="M189.733 30.3728V25.5297H200.727V20.3348H189.733V15.9859H201.787V10.6469H189.733H188.424H183.404V35.7118H188.424H189.733H201.999V30.3728H189.733Z"
            fill="white" />
    </g>
    <defs>
        <linearGradient id="paint0_linear_1039_380" x1="0" y1="14.2739" x2="23.2785" y2="14.2739"
            gradientUnits="userSpaceOnUse">
            <stop stop-color="#26008F" />
            <stop offset="0.79" stop-color="#CB2376" />
        </linearGradient>
        <linearGradient id="paint1_linear_1039_380" x1="88.9315" y1="13.634" x2="67.4687" y2="62.4598"
            gradientUnits="userSpaceOnUse">
            <stop offset="0.552083" stop-color="#CB2376" />
            <stop offset="1" stop-color="#26008F" />
        </linearGradient>
        <linearGradient id="paint2_linear_1039_380" x1="28.4675" y1="32.2459" x2="5.1875" y2="32.2459"
            gradientUnits="userSpaceOnUse">
            <stop offset="0.21" stop-color="#CB2376" />
            <stop offset="1" stop-color="#26008F" />
        </linearGradient>
        <clipPath id="clip0_1039_380">
            <rect width="202" height="46.5198" fill="white" />
        </clipPath>
    </defs>
</svg>